<svg width="107" height="17" viewBox="0 0 107 17" fill="none" xmlns="http://www.w3.org/2000/svg">
<path fill-rule="evenodd" clip-rule="evenodd" d="M84.23 14.26C86.72 14.26 88.69 11.57 88.69 8.25999V0.259995H90.69V8.25999C90.69 12.66 87.81 16.21 84.27 16.21C80.73 16.21 77.85 12.66 77.85 8.25999V0.259995H79.85V8.25999C79.77 11.62 81.74 14.31 84.22 14.31L84.23 14.26ZM36.06 16.33H34.06V14.9C32.7702 15.8028 31.2344 16.288 29.66 16.29C25.9602 16.3148 22.7261 13.7993 21.8395 10.2072C20.9529 6.61511 22.6452 2.88371 25.9316 1.18415C29.218 -0.515399 33.2411 0.26034 35.66 3.05999L34.19 4.36999C32.3509 2.31386 29.3468 1.77666 26.9091 3.06801C24.4715 4.35936 23.2284 7.14647 23.8964 9.82296C24.5645 12.4995 26.9714 14.3756 29.73 14.37C31.4117 14.3735 33.0112 13.6431 34.11 12.37H28.71V10.37H36.08L36.06 16.33ZM2.22998 0.389995H0.22998V16.31H8.22998V14.31H2.22998V0.389995ZM14.46 12.39C17.7737 12.39 20.46 9.7037 20.46 6.38999C20.46 3.07629 17.7737 0.389995 14.46 0.389995C12.8687 0.389995 11.3426 1.02214 10.2173 2.14735C9.09212 3.27257 8.45998 4.7987 8.45998 6.38999C8.45998 9.7037 11.1463 12.39 14.46 12.39ZM14.46 10.39C16.6691 10.39 18.46 8.59913 18.46 6.38999C18.46 4.18086 16.6691 2.38999 14.46 2.38999C12.2508 2.38999 10.46 4.18086 10.46 6.38999C10.471 8.59132 12.2586 10.37 14.46 10.37V10.39ZM18.46 16.33V14.33H10.46V16.33H18.46ZM49.42 6.42999C49.42 3.11629 46.7337 0.429995 43.42 0.429995L43.44 0.389995C41.8383 0.38462 40.3009 1.01989 39.1702 2.15436C38.0395 3.28883 37.4093 4.8283 37.42 6.42999C37.42 9.7437 40.1063 12.43 43.42 12.43C46.7337 12.43 49.42 9.7437 49.42 6.42999ZM43.42 10.43C45.6291 10.43 47.42 8.63913 47.42 6.42999C47.42 4.22086 45.6291 2.42999 43.42 2.42999C41.2108 2.42999 39.42 4.22086 39.42 6.42999C39.4529 8.62348 41.2463 10.3812 43.44 10.37L43.42 10.43ZM47.42 16.37V14.37H39.42V16.37H47.42ZM51.55 0.389995H53.55V16.29H51.55V0.389995ZM58.32 0.389995H56.32V16.32H58.32V12.32H58.63C60.9154 12.5679 63.1415 11.4883 64.3618 9.54018C65.5822 7.59206 65.5822 5.11793 64.3618 3.16981C63.1415 1.22168 60.9154 0.142059 58.63 0.389995C58.5269 0.379068 58.423 0.379068 58.32 0.389995ZM58.32 2.38999V2.43664L58.31 2.43999L58.32 2.38999ZM58.32 2.43664C58.4206 2.40332 58.5245 2.38097 58.63 2.36999C60.1723 2.16461 61.6938 2.87226 62.5305 4.18413C63.3671 5.49599 63.3671 7.174 62.5305 8.48586C61.6938 9.79773 60.1723 10.5054 58.63 10.3H58.32V2.43664ZM72.6969 1.56614L72.73 1.53999L72.72 1.58999L72.6969 1.56614ZM69.91 0.439995C70.9561 0.409107 71.9667 0.817903 72.6969 1.56614L71.25 2.70999C70.7287 2.1653 69.939 1.97197 69.225 2.21425C68.5111 2.45653 68.0021 3.09053 67.92 3.83999V3.99999C67.92 4.87999 68.53 5.46999 69.72 5.54999C74.3 5.82999 76.4 7.97999 76.4 10.82V11C76.1585 13.2954 74.6007 15.2393 72.4129 15.975C70.2252 16.7107 67.8094 16.1031 66.23 14.42L67.76 13.24C68.4808 14.0125 69.5046 14.4293 70.56 14.38C72.5612 14.4855 74.2899 12.9949 74.48 11V10.86C74.48 8.18999 71.86 7.69999 69.59 7.47999C67.49 7.27999 65.98 5.96999 65.98 4.07999V3.99999C66.1338 1.95652 67.8613 0.391634 69.91 0.439995ZM104.04 16.26H106.04L106.02 0.389995L99.42 9.07999L92.82 0.389995V16.29H94.82V6.35999L99.43 12.36L104.04 6.35999V16.26Z" fill="white"/>
</svg>
